#N canvas 470 296 1920 966 12;
#X obj 166 26 inlet;
#X obj 303 86 inlet;
#X floatatom 303 110 5 0 0 0 - - - 0;
#X obj 197 132 t b b b;
#X msg 213 186 set 1;
#X msg 168 185 0;
#X obj 303 133 * 1000;
#X msg 303 157 set \$1;
#X msg 303 181;
#X obj 202 236 line 20;
#X floatatom 202 260 5 0 0 0 - - - 0;
#X obj 202 283 sel 0;
#X msg 164 320 stop;
#X obj 249 321 outlet;
#X msg 111 210 stop;
#X obj 62 114 inlet;
#X connect 0 0 3 0;
#X connect 1 0 2 0;
#X connect 2 0 6 0;
#X connect 3 0 5 0;
#X connect 3 1 4 0;
#X connect 3 2 8 0;
#X connect 4 0 9 0;
#X connect 5 0 9 0;
#X connect 6 0 7 0;
#X connect 7 0 8 0;
#X connect 8 0 9 1;
#X connect 9 0 10 0;
#X connect 10 0 11 0;
#X connect 10 0 13 0;
#X connect 11 0 12 0;
#X connect 12 0 9 0;
#X connect 14 0 9 0;
#X connect 15 0 14 0;
