#N canvas 0 0 1920 966 12;
#X obj 829 65 bng 19 250 50 0 empty empty empty 0 -10 0 12 #fcfcfc #000000 #000000;
#X floatatom 541 113 5 0 0 0 - - - 0;
#X msg 541 136 set \$1;
#X obj 373 17 bng 19 250 50 0 empty empty empty 0 -10 0 12 #fcfcfc #000000 #000000;
#N canvas 0 50 450 250 (subpatch) 0;
#X array sample 775564 float 2;
#X coords 0 -1 775564 1 200 140 1 0 0;
#X restore 712 138 graph;
#X obj 56 127 soundfiler;
#X obj 109 15 bng 19 250 50 0 empty empty empty 0 -10 0 12 #fcfcfc #000000 #000000;
#X floatatom 56 151 14 0 0 0 - - - 0;
#X obj 141 292 tabplay~ sample;
#X msg 55 103 read -resize b-flat-sample-wav.wav sample;
#X obj 124 434 dac~;
#X obj 146 345 *~;
#X msg 541 160 0;
#X obj 139 207 bng 19 250 50 0 empty empty empty 0 -10 0 12 #fcfcfc #000000 #000000;
#X obj 207 356 env~;
#X floatatom 251 382 5 0 0 0 - - - 0;
#X obj 783 94 linear-envelope;
#X msg 783 65 stop;
#X obj 440 313 sound-envelope;
#X floatatom 633 111 5 0 0 0 - - - 0;
#X obj 633 134 * 1000;
#X msg 633 158 set \$1;
#X msg 633 182 2000;
#X obj 440 116 t b b b b;
#X obj 681 324 tgl 19 0 empty empty empty 0 -10 0 12 #fcfcfc #000000 #000000 0 1;
#X msg 681 348 \; pd dsp \$1;
#X floatatom 515 234 5 0 0 0 - - - 0;
#X obj 536 199 *;
#X msg 873 39 3;
#X floatatom 873 63 5 0 0 0 - - - 0;
#X obj 563 14 loadbang;
#X obj 252 405 div 10;
#X floatatom 252 429 5 0 0 0 - - - 0;
#X connect 0 0 16 1;
#X connect 1 0 2 0;
#X connect 2 0 12 0;
#X connect 3 0 23 0;
#X connect 5 0 7 0;
#X connect 6 0 9 0;
#X connect 8 0 11 0;
#X connect 9 0 5 0;
#X connect 11 0 10 0;
#X connect 11 0 10 1;
#X connect 11 0 14 0;
#X connect 12 0 27 0;
#X connect 12 0 27 1;
#X connect 13 0 8 0;
#X connect 14 0 15 0;
#X connect 15 0 31 0;
#X connect 16 0 1 0;
#X connect 17 0 16 0;
#X connect 18 0 11 1;
#X connect 19 0 20 0;
#X connect 20 0 21 0;
#X connect 21 0 22 0;
#X connect 22 0 18 2;
#X connect 23 0 18 0;
#X connect 23 1 12 0;
#X connect 23 2 22 0;
#X connect 23 3 13 0;
#X connect 24 0 25 0;
#X connect 26 0 18 1;
#X connect 27 0 26 0;
#X connect 28 0 29 0;
#X connect 29 0 16 2;
#X connect 30 0 28 0;
#X connect 30 0 9 0;
#X connect 31 0 32 0;
