#N canvas 0 0 1704 952 12;
#X obj 1062 69 bng 19 250 50 0 empty empty empty 0 -10 0 12 #fcfcfc #000000 #000000;
#X floatatom 767 117 5 0 0 0 - - - 0;
#X msg 767 140 set \$1;
#X obj 599 19 bng 19 250 50 0 empty empty empty 0 -10 0 12 #fcfcfc #000000 #000000;
#N canvas 0 50 450 250 (subpatch) 0;
#X array sample 775564 float 2;
#X coords 0 -1 775564 1 200 140 1 0 0;
#X restore 1213 82 graph;
#X obj 56 127 soundfiler;
#X obj 109 15 bng 19 250 50 0 empty empty empty 0 -10 0 12 #fcfcfc #000000 #000000;
#X floatatom 56 151 14 0 0 0 - - - 0;
#X obj 367 296 tabplay~ sample;
#X msg 55 103 read -resize b-flat-sample-wav.wav sample;
#X obj 350 438 dac~;
#X obj 372 349 *~;
#X msg 767 164 0.232;
#X obj 365 211 bng 19 250 50 0 empty empty empty 0 -10 0 12 #fcfcfc #000000 #000000;
#X obj 433 360 env~;
#X floatatom 477 386 5 0 0 0 - - - 0;
#X obj 1009 98 linear-envelope;
#X msg 1009 69 stop;
#X obj 666 317 sound-envelope;
#X floatatom 859 115 5 0 0 0 - - - 0;
#X obj 859 138 * 1000;
#X msg 859 162 set \$1;
#X msg 859 186 2000;
#X obj 666 120 t b b b b;
#X obj 907 328 tgl 19 0 empty empty empty 0 -10 0 12 #fcfcfc #000000 #000000 0 1;
#X msg 907 352 \; pd dsp \$1;
#X floatatom 741 238 5 0 0 0 - - - 0;
#X obj 762 203 *;
#X floatatom 1099 67 5 0 0 0 - - - 0;
#X obj 789 18 loadbang;
#X obj 312 591 div 10;
#X floatatom 312 615 5 0 0 0 - - - 0;
#X obj 811 565 line;
#N canvas 627 419 450 250 (subpatch) 0;
#X array volume-envelope 775564 float 2;
#X coords 0 -3 775564 3 200 140 1 0 0;
#X restore 1212 250 graph;
#X msg 173 140 \; volume-envelope resize \$1;
#X obj 68 188 t f f f;
#X floatatom 63 260 5 0 0 0 - - - 0;
#X msg 966 522 set 0;
#X obj 588 71 t b b;
#X obj 573 621 tabwrite volume-envelope;
#X msg 145 297 set \$1;
#X msg 157 380 17586.5;
#X msg 63 284 set \$1;
#X msg 97 379 775564;
#X obj 480 128 t b b;
#X obj 138 458 pack;
#X listbox 138 483 20 0 0 0 - - - 0;
#X floatatom 811 590 26 0 0 0 - - - 0;
#X obj 145 272 expr ($f1/44100)*1000;
#X msg 1099 43 20;
#X msg 1094 427 \; volume-envelope const 0;
#X obj 1008 166 t b b b;
#X obj 1492 80 send stop;
#X msg 1492 32 stop;
#X obj 810 481 receive stop;
#X msg 810 506 stop;
#X obj 1011 8 receive stop;
#X obj 480 429 < 10;
#X obj 558 443 f 0;
#X obj 501 467 t f b;
#X connect 0 0 51 0;
#X connect 1 0 2 0;
#X connect 2 0 12 0;
#X connect 3 0 38 0;
#X connect 5 0 7 0;
#X connect 6 0 9 0;
#X connect 7 0 35 0;
#X connect 8 0 11 0;
#X connect 9 0 5 0;
#X connect 11 0 10 0;
#X connect 11 0 10 1;
#X connect 11 0 14 0;
#X connect 12 0 27 0;
#X connect 12 0 27 1;
#X connect 13 0 8 0;
#X connect 14 0 15 0;
#X connect 15 0 30 0;
#X connect 15 0 57 0;
#X connect 16 0 1 0;
#X connect 17 0 16 0;
#X connect 18 0 11 1;
#X connect 19 0 20 0;
#X connect 20 0 21 0;
#X connect 21 0 22 0;
#X connect 22 0 18 2;
#X connect 23 0 18 0;
#X connect 23 1 12 0;
#X connect 23 2 22 0;
#X connect 23 3 13 0;
#X connect 24 0 25 0;
#X connect 26 0 18 1;
#X connect 27 0 26 0;
#X connect 28 0 16 2;
#X connect 29 0 49 0;
#X connect 29 0 9 0;
#X connect 30 0 31 0;
#X connect 32 0 47 0;
#X connect 35 0 36 0;
#X connect 35 1 48 0;
#X connect 35 2 34 0;
#X connect 36 0 42 0;
#X connect 37 0 32 0;
#X connect 38 0 44 0;
#X connect 38 1 23 0;
#X connect 40 0 41 0;
#X connect 41 0 45 1;
#X connect 42 0 43 0;
#X connect 43 0 45 0;
#X connect 44 0 43 0;
#X connect 44 1 41 0;
#X connect 45 0 46 0;
#X connect 46 0 32 0;
#X connect 47 0 39 1;
#X connect 48 0 40 0;
#X connect 49 0 28 0;
#X connect 51 0 16 1;
#X connect 51 1 37 0;
#X connect 51 2 50 0;
#X connect 53 0 52 0;
#X connect 54 0 55 0;
#X connect 55 0 32 0;
#X connect 56 0 17 0;
#X connect 59 1 58 0;
