#N canvas 952 0 958 956 12;
#X obj 129 66 inlet;
#X obj 241 357 envelope;
#X text 120 41 bang in;
#X obj 324 125 inlet;
#X msg 198 249 -1;
#X obj 218 69 inlet;
#X text 211 41 peak in;
#X text 321 104 decay in;
#X msg 325 248 0;
#X obj 129 90 t b b b;
#X obj 242 409 outlet~;
#X msg 263 249 20;
#X connect 0 0 9 0;
#X connect 1 0 10 0;
#X connect 3 0 1 3;
#X connect 4 0 1 0;
#X connect 5 0 1 1;
#X connect 8 0 1 5;
#X connect 8 0 1 4;
#X connect 9 0 4 0;
#X connect 9 1 11 0;
#X connect 9 2 8 0;
#X connect 11 0 1 2;
