#N canvas 192 192 1920 966 12;
#X obj 132 72 t f f;
#X obj 41 115 expr floor($f1);
#X floatatom 40 174 5 0 0 0 - - - 0;
#X obj 180 117 expr $f1 - floor($f1);
#X obj 400 282 f;
#X obj 179 274 list fromsymbol;
#X obj 179 250 makefilename %s;
#X obj 179 298 list length;
#X obj 179 346 t b f;
#X msg 156 376 10;
#X obj 194 411 pow;
#X floatatom 194 435 5 0 0 0 - - - 0;
#X obj 181 322 - 2;
#X obj 182 185 t f f;
#X obj 198 458 t b f;
#X obj 398 329 *;
#X floatatom 398 353 5 0 0 0 - - - 0;
#X obj 132 23 inlet;
#X obj 40 197 outlet;
#X obj 398 376 outlet;
#X obj 289 165 print;
#X obj 231 87 print;
#X obj 231 63 expr floor($f1);
#X obj 211 40 print;
#X connect 0 0 1 0;
#X connect 0 1 3 0;
#X connect 0 1 22 0;
#X connect 0 1 23 0;
#X connect 1 0 2 0;
#X connect 2 0 18 0;
#X connect 3 0 13 0;
#X connect 3 0 20 0;
#X connect 4 0 15 0;
#X connect 5 0 7 0;
#X connect 6 0 5 0;
#X connect 7 0 12 0;
#X connect 8 0 9 0;
#X connect 8 1 10 1;
#X connect 9 0 10 0;
#X connect 10 0 11 0;
#X connect 11 0 14 0;
#X connect 12 0 8 0;
#X connect 13 0 6 0;
#X connect 13 1 4 1;
#X connect 14 0 4 0;
#X connect 14 1 15 1;
#X connect 15 0 16 0;
#X connect 16 0 19 0;
#X connect 17 0 0 0;
#X connect 22 0 21 0;
