#N canvas 0 0 1704 952 12;
#N canvas 627 394 450 300 playsound 0;
#X obj 37 31 inlet;
#X obj 39 120 outlet~;
#X obj 129 122 outlet;
#X restore 52 416 pd playsound;
#X floatatom 765 137 5 0 100 0 - - - 0;
#X obj 765 160 * 1000;
#X msg 765 184 set \$1;
#X msg 765 208 20000;
#X obj 739 137 bng 20 250 50 0 empty empty empty 0 -10 0 12 #fcfcfc #000000 #000000;
#X obj 737 256 line;
#X floatatom 737 280 5 0 0 0 - - - 0;
#X msg 717 209 set 1;
#X msg 682 210 0;
#X msg 693 138 stop;
#X obj 696 180 t b b b;
#X text 720 111 time in seconds;
#X obj 263 101 bng 20 250 50 0 empty empty empty 0 -10 0 12 #fcfcfc #000000 #000000;
#X obj 311 321 adsr, f 28;
#X msg 471 256 0;
#X msg 387 276 20;
#X obj 471 286 t f f;
#X floatatom 425 111 5 0 100 0 - - - 0;
#X obj 425 134 * 1000;
#X msg 427 207 set \$1;
#X msg 427 231 1412;
#X obj 752 18 loadbang;
#X msg 680 53 20;
#X msg 638 53 2;
#X text 731 71 default values;
#X obj 450 174 *;
#X msg 593 53;
#X obj 28 44 tgl 20 0 empty empty empty 0 -10 0 12 #fcfcfc #000000 #000000 0 1;
#X msg 28 69 \; pd dsp \$1;
#X text 26 19 dsp on/off;
#X obj 311 345 env~;
#X floatatom 311 369 5 0 0 0 - - - 0;
#X msg 277 252 1;
#X obj 750 44 t b b b b;
#X obj 263 126 t b b b;
#X floatatom 344 235 5 0 0 0 - - - 0;
#X msg 344 258 set \$1;
#X msg 344 282 0.5;
#X connect 1 0 2 0;
#X connect 2 0 3 0;
#X connect 3 0 4 0;
#X connect 4 0 6 1;
#X connect 5 0 11 0;
#X connect 6 0 7 0;
#X connect 7 0 26 0;
#X connect 8 0 6 0;
#X connect 9 0 6 0;
#X connect 10 0 6 0;
#X connect 11 0 9 0;
#X connect 11 1 8 0;
#X connect 11 2 4 0;
#X connect 13 0 35 0;
#X connect 14 0 31 0;
#X connect 15 0 17 0;
#X connect 16 0 14 2;
#X connect 17 0 14 4;
#X connect 17 1 14 5;
#X connect 18 0 19 0;
#X connect 19 0 26 1;
#X connect 20 0 21 0;
#X connect 21 0 14 3;
#X connect 22 0 34 0;
#X connect 23 0 1 0;
#X connect 24 0 18 0;
#X connect 26 0 20 0;
#X connect 28 0 29 0;
#X connect 31 0 32 0;
#X connect 33 0 14 0;
#X connect 34 0 24 0;
#X connect 34 1 23 0;
#X connect 34 2 15 0;
#X connect 34 3 16 0;
#X connect 35 0 33 0;
#X connect 35 1 38 0;
#X connect 35 2 21 0;
#X connect 36 0 37 0;
#X connect 37 0 38 0;
#X connect 38 0 14 1;
