#N canvas 0 0 1704 952 12;
#X obj 163 48 inlet;
#X obj 379 48 inlet;
#X text 153 20 trigger;
#X text 369 20 decay time;
#X obj 240 202 line~;
#X obj 240 226 outlet~;
#X text 259 19 attack time;
#X obj 267 51 inlet;
#X obj 244 129 pack 1 \$2;
#X obj 276 82 t f f;
#X obj 348 151 del;
#X obj 163 72 t b b;
#X obj 399 283 line 0 20;
#X msg 348 175 0;
#X connect 0 0 11 0;
#X connect 4 0 5 0;
#X connect 7 0 9 0;
#X connect 8 0 4 0;
#X connect 9 0 8 1;
#X connect 9 1 10 1;
#X connect 10 0 13 0;
#X connect 11 0 8 0;
#X connect 11 1 10 0;
