#N canvas 4 32 1704 952 12;
#X obj 407 85 bng 19 250 50 0 empty empty empty 0 -10 0 12 #fcfcfc #000000 #000000;
#X obj 207 131 random 12;
#X obj 207 155 expr pow ( 2 \, ( ( $f1 - 6 ) / 12.) );
#X floatatom 315 192 5 0 0 0 - - - 0;
#X text 306 128 random interval (+- 6);
#X text 223 236 starting pitch;
#X obj 207 262 * 220;
#X obj 545 294 osc~, f 6;
#X obj 207 286 t f f;
#X obj 527 185 f;
#X msg 544 140 220;
#X obj 321 426 dac~;
#X obj 207 327 osc~;
#X floatatom 304 339 5 0 0 0 - - - 0;
#X floatatom 404 299 5 0 0 0 - - - 0;
#X obj 486 388 *~;
#X obj 408 386 *~;
#X obj 448 340 tgl 19 0 empty empty empty 0 -10 0 12 #fcfcfc #000000 #000000 0 1;
#X obj 275 61 metro 500;
#X obj 271 22 tgl 19 0 empty empty empty 0 -10 0 12 #fcfcfc #000000 #000000 0 1;
#X obj 206 73 t b;
#X floatatom 521 61 5 0 0 0 - - - 0;
#X msg 521 84 set \$1;
#X obj 628 69 bng 19 250 50 0 empty empty empty 0 -10 0 12 #fcfcfc #000000 #000000;
#X obj 748 84 tgl 20 0 empty empty empty 0 -10 0 12 #fcfcfc #000000 #000000 0 1;
#X msg 748 109 \; pd dsp \$1;
#X connect 0 0 9 0;
#X connect 1 0 2 0;
#X connect 2 0 3 0;
#X connect 2 0 6 0;
#X connect 6 0 8 0;
#X connect 7 0 15 0;
#X connect 8 0 12 0;
#X connect 8 0 13 0;
#X connect 8 1 9 1;
#X connect 9 0 7 0;
#X connect 9 0 14 0;
#X connect 9 0 20 0;
#X connect 10 0 9 1;
#X connect 10 0 6 1;
#X connect 12 0 16 0;
#X connect 15 0 11 1;
#X connect 16 0 11 0;
#X connect 17 0 16 1;
#X connect 17 0 15 1;
#X connect 18 0 0 0;
#X connect 19 0 18 0;
#X connect 20 0 1 0;
#X connect 21 0 22 0;
#X connect 22 0 10 0;
#X connect 23 0 10 0;
#X connect 24 0 25 0;
