#N canvas 0 0 1704 952 12;
#X msg 387 86 115.541;
#X obj 204 153 * 1, f 15;
#X obj 543 155 * 2, f 17;
#X obj 1456 471 tgl 20 0 empty empty empty 0 -10 0 12 #fcfcfc #000000 #000000 0 1;
#X msg 1456 496 \; pd dsp \$1;
#X obj 205 230 osc~;
#X obj 372 231 osc~;
#X obj 544 232 osc~;
#X obj 695 231 osc~;
#X obj 853 227 osc~;
#X obj 982 224 osc~;
#N canvas 0 0 1704 997 masterenvelope 0;
#X obj 322 65 inlet;
#X obj 203 234 line;
#X obj 150 29 inlet;
#X floatatom 322 89 5 0 0 0 - - - 0;
#X obj 322 112 * 1000;
#X obj 386 239 pack;
#X msg 327 201 0;
#X obj 203 258 outlet;
#X obj 150 53 route start stop;
#X msg 251 82 stop;
#X obj 152 99 t b b b;
#X msg 96 203 0;
#X msg 199 186 1 3000;
#X obj 264 162 del 3050;
#X connect 0 0 3 0;
#X connect 1 0 7 0;
#X connect 2 0 8 0;
#X connect 3 0 4 0;
#X connect 4 0 5 1;
#X connect 5 0 1 0;
#X connect 6 0 5 0;
#X connect 8 0 10 0;
#X connect 8 1 9 0;
#X connect 9 0 1 0;
#X connect 10 0 13 0;
#X connect 10 1 12 0;
#X connect 10 2 11 0;
#X connect 11 0 1 0;
#X connect 12 0 1 0;
#X connect 13 0 6 0;
#X restore 1333 292 pd masterenvelope;
#X obj 611 530 *~;
#X obj 612 603 dac~;
#X obj 920 451 vsl 20 170 0 1 0 0 empty empty empty 0 -9 0 12 #fcfcfc #000000 #000000 0 1;
#X obj 227 366 *~;
#X obj 405 367 *~;
#X obj 568 357 *~;
#X obj 726 354 *~;
#X obj 879 352 *~;
#X obj 1012 354 *~;
#N canvas 0 0 1704 1001 lfo 0;
#X obj 483 123 inlet;
#X obj 406 187 osc~ 0.2;
#X obj 406 212 *~ 0.3;
#X obj 406 237 +~ 1;
#X obj 405 338 outlet~;
#X connect 0 0 1 1;
#X connect 1 0 2 0;
#X connect 2 0 3 0;
#X connect 3 0 4 0;
#X restore 246 291 pd lfo;
#X obj 245 324 +~;
#X obj 282 255 line;
#X obj 245 255 line;
#N canvas 0 0 1704 1001 lfo 0;
#X obj 483 123 inlet;
#X obj 406 187 osc~ 0.2;
#X obj 406 212 *~ 0.3;
#X obj 406 237 +~ 1;
#X obj 405 338 outlet~;
#X connect 0 0 1 1;
#X connect 1 0 2 0;
#X connect 2 0 3 0;
#X connect 3 0 4 0;
#X restore 420 293 pd lfo;
#X obj 424 329 +~;
#X obj 459 262 line;
#X obj 414 262 line;
#N canvas 0 0 1704 1001 lfo 0;
#X obj 483 123 inlet;
#X obj 406 187 osc~ 0.2;
#X obj 406 212 *~ 0.3;
#X obj 406 237 +~ 1;
#X obj 405 338 outlet~;
#X connect 0 0 1 1;
#X connect 1 0 2 0;
#X connect 2 0 3 0;
#X connect 3 0 4 0;
#X restore 585 288 pd lfo;
#X obj 587 318 +~;
#X obj 631 257 line;
#X obj 586 257 line;
#N canvas 0 0 1704 1001 lfo 0;
#X obj 483 123 inlet;
#X obj 406 187 osc~ 0.2;
#X obj 406 212 *~ 0.3;
#X obj 406 237 +~ 1;
#X obj 405 338 outlet~;
#X connect 0 0 1 1;
#X connect 1 0 2 0;
#X connect 2 0 3 0;
#X connect 3 0 4 0;
#X restore 745 285 pd lfo;
#X obj 745 315 +~;
#X obj 787 255 line;
#X obj 742 255 line;
#N canvas 0 0 1704 1001 lfo 0;
#X obj 483 123 inlet;
#X obj 406 187 osc~ 0.2;
#X obj 406 212 *~ 0.3;
#X obj 406 237 +~ 1;
#X obj 405 338 outlet~;
#X connect 0 0 1 1;
#X connect 1 0 2 0;
#X connect 2 0 3 0;
#X connect 3 0 4 0;
#X restore 898 282 pd lfo;
#X obj 898 310 +~;
#X obj 934 250 line;
#X obj 895 250 line;
#N canvas 0 0 1704 1001 lfo 0;
#X obj 483 123 inlet;
#X obj 406 187 osc~ 0.2;
#X obj 406 212 *~ 0.3;
#X obj 406 237 +~ 1;
#X obj 405 338 outlet~;
#X connect 0 0 1 1;
#X connect 1 0 2 0;
#X connect 2 0 3 0;
#X connect 3 0 4 0;
#X restore 1030 285 pd lfo;
#X obj 1031 312 +~;
#X obj 1071 249 line;
#X obj 1026 249 line;
#X obj 1023 224 r f5;
#X obj 894 227 r f4;
#X obj 932 227 r v4;
#X obj 787 231 r v3;
#X obj 742 231 r f3;
#X obj 585 232 r f2;
#X obj 630 231 r v2;
#X obj 461 233 r v1;
#X obj 413 232 r f1;
#X obj 243 231 r f0;
#X obj 284 230 r v0;
#N canvas 0 0 1704 1001 send-matrix 0;
#N canvas 0 0 1704 1001 freq-pack 0;
#X obj 540 396 random 140;
#X obj 540 421 + 1;
#X obj 540 446 / 100;
#X obj 575 609 pack f f;
#X obj 648 394 f;
#X obj 541 495 t f f f;
#X obj 578 348 t b b;
#X obj 603 550 expr ( (abs($f2-$f1)*100) / 70)*1000;
#X obj 575 634 outlet;
#X obj 578 246 route bang float;
#X obj 578 187 inlet;
#X connect 0 0 1 0;
#X connect 1 0 2 0;
#X connect 2 0 5 0;
#X connect 3 0 8 0;
#X connect 4 0 7 1;
#X connect 5 0 4 1;
#X connect 5 1 3 0;
#X connect 5 2 7 0;
#X connect 6 0 0 0;
#X connect 6 1 4 0;
#X connect 7 0 3 1;
#X connect 9 0 6 0;
#X connect 9 1 4 1;
#X connect 10 0 9 0;
#X restore 163 223 pd freq-pack;
#N canvas 0 0 1704 1001 vol-pack 0;
#X obj 540 421 + 1;
#X obj 540 446 / 100;
#X obj 575 609 pack f f;
#X obj 648 394 f;
#X obj 541 495 t f f f;
#X obj 578 348 t b b;
#X obj 575 634 outlet;
#X obj 578 246 route bang float;
#X obj 578 187 inlet;
#X obj 540 396 random 101;
#X obj 603 550 expr ( (abs($f2-$f1)*100) / 50)*1000;
#X connect 0 0 1 0;
#X connect 1 0 4 0;
#X connect 2 0 6 0;
#X connect 3 0 10 1;
#X connect 4 0 3 1;
#X connect 4 1 2 0;
#X connect 4 2 10 0;
#X connect 5 0 9 0;
#X connect 5 1 3 0;
#X connect 7 0 5 0;
#X connect 7 1 3 1;
#X connect 8 0 7 0;
#X connect 9 0 0 0;
#X connect 10 0 2 1;
#X restore 264 223 pd vol-pack;
#X obj 221 167 bng 20 250 50 0 empty empty empty 0 -10 0 12 #fcfcfc #000000 #000000;
#X obj 221 192 t b b;
#X obj 163 248 s f0;
#X obj 264 248 s v0;
#N canvas 0 0 1704 1001 freq-pack 0;
#X obj 540 396 random 140;
#X obj 540 421 + 1;
#X obj 540 446 / 100;
#X obj 575 609 pack f f;
#X obj 648 394 f;
#X obj 541 495 t f f f;
#X obj 578 348 t b b;
#X obj 603 550 expr ( (abs($f2-$f1)*100) / 70)*1000;
#X obj 575 634 outlet;
#X obj 578 246 route bang float;
#X obj 578 187 inlet;
#X connect 0 0 1 0;
#X connect 1 0 2 0;
#X connect 2 0 5 0;
#X connect 3 0 8 0;
#X connect 4 0 7 1;
#X connect 5 0 4 1;
#X connect 5 1 3 0;
#X connect 5 2 7 0;
#X connect 6 0 0 0;
#X connect 6 1 4 0;
#X connect 7 0 3 1;
#X connect 9 0 6 0;
#X connect 9 1 4 1;
#X connect 10 0 9 0;
#X restore 376 222 pd freq-pack;
#N canvas 0 0 1704 1001 vol-pack 0;
#X obj 540 421 + 1;
#X obj 540 446 / 100;
#X obj 575 609 pack f f;
#X obj 648 394 f;
#X obj 541 495 t f f f;
#X obj 578 348 t b b;
#X obj 575 634 outlet;
#X obj 578 246 route bang float;
#X obj 578 187 inlet;
#X obj 540 396 random 101;
#X obj 603 550 expr ( (abs($f2-$f1)*100) / 50)*1000;
#X connect 0 0 1 0;
#X connect 1 0 4 0;
#X connect 2 0 6 0;
#X connect 3 0 10 1;
#X connect 4 0 3 1;
#X connect 4 1 2 0;
#X connect 4 2 10 0;
#X connect 5 0 9 0;
#X connect 5 1 3 0;
#X connect 7 0 5 0;
#X connect 7 1 3 1;
#X connect 8 0 7 0;
#X connect 9 0 0 0;
#X connect 10 0 2 1;
#X restore 477 222 pd vol-pack;
#X obj 434 166 bng 20 250 50 0 empty empty empty 0 -10 0 12 #fcfcfc #000000 #000000;
#X obj 434 191 t b b;
#N canvas 0 0 1704 1001 freq-pack 0;
#X obj 540 396 random 140;
#X obj 540 421 + 1;
#X obj 540 446 / 100;
#X obj 575 609 pack f f;
#X obj 648 394 f;
#X obj 541 495 t f f f;
#X obj 578 348 t b b;
#X obj 603 550 expr ( (abs($f2-$f1)*100) / 70)*1000;
#X obj 575 634 outlet;
#X obj 578 246 route bang float;
#X obj 578 187 inlet;
#X connect 0 0 1 0;
#X connect 1 0 2 0;
#X connect 2 0 5 0;
#X connect 3 0 8 0;
#X connect 4 0 7 1;
#X connect 5 0 4 1;
#X connect 5 1 3 0;
#X connect 5 2 7 0;
#X connect 6 0 0 0;
#X connect 6 1 4 0;
#X connect 7 0 3 1;
#X connect 9 0 6 0;
#X connect 9 1 4 1;
#X connect 10 0 9 0;
#X restore 339 409 pd freq-pack;
#N canvas 0 0 1704 1001 vol-pack 0;
#X obj 540 421 + 1;
#X obj 540 446 / 100;
#X obj 575 609 pack f f;
#X obj 648 394 f;
#X obj 541 495 t f f f;
#X obj 578 348 t b b;
#X obj 575 634 outlet;
#X obj 578 246 route bang float;
#X obj 578 187 inlet;
#X obj 540 396 random 101;
#X obj 603 550 expr ( (abs($f2-$f1)*100) / 50)*1000;
#X connect 0 0 1 0;
#X connect 1 0 4 0;
#X connect 2 0 6 0;
#X connect 3 0 10 1;
#X connect 4 0 3 1;
#X connect 4 1 2 0;
#X connect 4 2 10 0;
#X connect 5 0 9 0;
#X connect 5 1 3 0;
#X connect 7 0 5 0;
#X connect 7 1 3 1;
#X connect 8 0 7 0;
#X connect 9 0 0 0;
#X connect 10 0 2 1;
#X restore 440 409 pd vol-pack;
#X obj 397 353 bng 20 250 50 0 empty empty empty 0 -10 0 12 #fcfcfc #000000 #000000;
#X obj 397 378 t b b;
#N canvas 0 0 1704 1001 freq-pack 0;
#X obj 540 396 random 140;
#X obj 540 421 + 1;
#X obj 540 446 / 100;
#X obj 575 609 pack f f;
#X obj 648 394 f;
#X obj 541 495 t f f f;
#X obj 578 348 t b b;
#X obj 603 550 expr ( (abs($f2-$f1)*100) / 70)*1000;
#X obj 575 634 outlet;
#X obj 578 246 route bang float;
#X obj 578 187 inlet;
#X connect 0 0 1 0;
#X connect 1 0 2 0;
#X connect 2 0 5 0;
#X connect 3 0 8 0;
#X connect 4 0 7 1;
#X connect 5 0 4 1;
#X connect 5 1 3 0;
#X connect 5 2 7 0;
#X connect 6 0 0 0;
#X connect 6 1 4 0;
#X connect 7 0 3 1;
#X connect 9 0 6 0;
#X connect 9 1 4 1;
#X connect 10 0 9 0;
#X restore 538 409 pd freq-pack;
#N canvas 0 0 1704 1001 vol-pack 0;
#X obj 540 421 + 1;
#X obj 540 446 / 100;
#X obj 575 609 pack f f;
#X obj 648 394 f;
#X obj 541 495 t f f f;
#X obj 578 348 t b b;
#X obj 575 634 outlet;
#X obj 578 246 route bang float;
#X obj 578 187 inlet;
#X obj 540 396 random 101;
#X obj 603 550 expr ( (abs($f2-$f1)*100) / 50)*1000;
#X connect 0 0 1 0;
#X connect 1 0 4 0;
#X connect 2 0 6 0;
#X connect 3 0 10 1;
#X connect 4 0 3 1;
#X connect 4 1 2 0;
#X connect 4 2 10 0;
#X connect 5 0 9 0;
#X connect 5 1 3 0;
#X connect 7 0 5 0;
#X connect 7 1 3 1;
#X connect 8 0 7 0;
#X connect 9 0 0 0;
#X connect 10 0 2 1;
#X restore 639 409 pd vol-pack;
#X obj 596 353 bng 20 250 50 0 empty empty empty 0 -10 0 12 #fcfcfc #000000 #000000;
#X obj 596 378 t b b;
#N canvas 0 0 1704 1001 freq-pack 0;
#X obj 540 396 random 140;
#X obj 540 421 + 1;
#X obj 540 446 / 100;
#X obj 575 609 pack f f;
#X obj 648 394 f;
#X obj 541 495 t f f f;
#X obj 578 348 t b b;
#X obj 603 550 expr ( (abs($f2-$f1)*100) / 70)*1000;
#X obj 575 634 outlet;
#X obj 578 246 route bang float;
#X obj 578 187 inlet;
#X connect 0 0 1 0;
#X connect 1 0 2 0;
#X connect 2 0 5 0;
#X connect 3 0 8 0;
#X connect 4 0 7 1;
#X connect 5 0 4 1;
#X connect 5 1 3 0;
#X connect 5 2 7 0;
#X connect 6 0 0 0;
#X connect 6 1 4 0;
#X connect 7 0 3 1;
#X connect 9 0 6 0;
#X connect 9 1 4 1;
#X connect 10 0 9 0;
#X restore 484 623 pd freq-pack;
#N canvas 0 0 1704 1001 vol-pack 0;
#X obj 540 421 + 1;
#X obj 540 446 / 100;
#X obj 575 609 pack f f;
#X obj 648 394 f;
#X obj 541 495 t f f f;
#X obj 578 348 t b b;
#X obj 575 634 outlet;
#X obj 578 246 route bang float;
#X obj 578 187 inlet;
#X obj 540 396 random 101;
#X obj 603 550 expr ( (abs($f2-$f1)*100) / 50)*1000;
#X connect 0 0 1 0;
#X connect 1 0 4 0;
#X connect 2 0 6 0;
#X connect 3 0 10 1;
#X connect 4 0 3 1;
#X connect 4 1 2 0;
#X connect 4 2 10 0;
#X connect 5 0 9 0;
#X connect 5 1 3 0;
#X connect 7 0 5 0;
#X connect 7 1 3 1;
#X connect 8 0 7 0;
#X connect 9 0 0 0;
#X connect 10 0 2 1;
#X restore 585 623 pd vol-pack;
#X obj 542 567 bng 20 250 50 0 empty empty empty 0 -10 0 12 #fcfcfc #000000 #000000;
#X obj 542 592 t b b;
#N canvas 0 0 1704 1001 freq-pack 0;
#X obj 540 396 random 140;
#X obj 540 421 + 1;
#X obj 540 446 / 100;
#X obj 575 609 pack f f;
#X obj 648 394 f;
#X obj 541 495 t f f f;
#X obj 578 348 t b b;
#X obj 603 550 expr ( (abs($f2-$f1)*100) / 70)*1000;
#X obj 575 634 outlet;
#X obj 578 246 route bang float;
#X obj 578 187 inlet;
#X connect 0 0 1 0;
#X connect 1 0 2 0;
#X connect 2 0 5 0;
#X connect 3 0 8 0;
#X connect 4 0 7 1;
#X connect 5 0 4 1;
#X connect 5 1 3 0;
#X connect 5 2 7 0;
#X connect 6 0 0 0;
#X connect 6 1 4 0;
#X connect 7 0 3 1;
#X connect 9 0 6 0;
#X connect 9 1 4 1;
#X connect 10 0 9 0;
#X restore 683 623 pd freq-pack;
#N canvas 0 0 1704 1001 vol-pack 0;
#X obj 540 421 + 1;
#X obj 540 446 / 100;
#X obj 575 609 pack f f;
#X obj 648 394 f;
#X obj 541 495 t f f f;
#X obj 578 348 t b b;
#X obj 575 634 outlet;
#X obj 578 246 route bang float;
#X obj 578 187 inlet;
#X obj 540 396 random 101;
#X obj 603 550 expr ( (abs($f2-$f1)*100) / 50)*1000;
#X connect 0 0 1 0;
#X connect 1 0 4 0;
#X connect 2 0 6 0;
#X connect 3 0 10 1;
#X connect 4 0 3 1;
#X connect 4 1 2 0;
#X connect 4 2 10 0;
#X connect 5 0 9 0;
#X connect 5 1 3 0;
#X connect 7 0 5 0;
#X connect 7 1 3 1;
#X connect 8 0 7 0;
#X connect 9 0 0 0;
#X connect 10 0 2 1;
#X restore 784 623 pd vol-pack;
#X obj 741 567 bng 20 250 50 0 empty empty empty 0 -10 0 12 #fcfcfc #000000 #000000;
#X obj 741 592 t b b;
#X obj 376 247 s f1;
#X obj 477 247 s v1;
#X obj 339 434 s f2;
#X obj 440 434 s v2;
#X obj 538 434 s f3;
#X obj 639 434 s v3;
#X obj 484 648 s f4;
#X obj 585 648 s v4;
#X obj 683 648 s f5;
#X obj 784 648 s v5;
#X obj 221 133 r b0;
#X obj 433 135 r b1;
#X obj 398 320 r b2;
#X obj 596 321 r b3;
#X obj 542 537 r b4;
#X obj 741 537 r b5;
#X text 147 70 each subpatch does the calculations for frequency or volume;
#X connect 0 0 4 0;
#X connect 1 0 5 0;
#X connect 2 0 3 0;
#X connect 3 0 0 0;
#X connect 3 1 1 0;
#X connect 6 0 26 0;
#X connect 7 0 27 0;
#X connect 8 0 9 0;
#X connect 9 0 6 0;
#X connect 9 1 7 0;
#X connect 10 0 28 0;
#X connect 11 0 29 0;
#X connect 12 0 13 0;
#X connect 13 0 10 0;
#X connect 13 1 11 0;
#X connect 14 0 30 0;
#X connect 15 0 31 0;
#X connect 16 0 17 0;
#X connect 17 0 14 0;
#X connect 17 1 15 0;
#X connect 18 0 32 0;
#X connect 19 0 33 0;
#X connect 20 0 21 0;
#X connect 21 0 18 0;
#X connect 21 1 19 0;
#X connect 22 0 34 0;
#X connect 23 0 35 0;
#X connect 24 0 25 0;
#X connect 25 0 22 0;
#X connect 25 1 23 0;
#X connect 36 0 2 0;
#X connect 37 0 8 0;
#X connect 38 0 12 0;
#X connect 39 0 16 0;
#X connect 40 0 20 0;
#X connect 41 0 24 0;
#X restore 57 550 pd send-matrix;
#N canvas 0 0 1704 1001 del-matrix 0;
#X obj 355 409 send b0;
#X obj 350 287 + 1000;
#X obj 350 263 random 4001;
#X obj 395 353 del;
#X obj 350 311 t b b f;
#X obj 446 287 + 1000;
#X obj 446 263 random 4001;
#X obj 491 353 del;
#X obj 446 311 t b b f;
#X obj 494 461 + 1000;
#X obj 494 437 random 4001;
#X obj 539 527 del;
#X obj 494 485 t b b f;
#X obj 588 461 + 1000;
#X obj 588 437 random 4001;
#X obj 633 527 del;
#X obj 588 485 t b b f;
#X obj 638 647 + 1000;
#X obj 638 623 random 4001;
#X obj 683 713 del;
#X obj 638 671 t b b f;
#X obj 728 645 + 1000;
#X obj 728 621 random 4001;
#X obj 773 711 del;
#X obj 728 669 t b b f;
#X obj 451 409 send b1;
#X obj 500 578 send b2;
#X obj 594 578 send b3;
#X obj 643 776 send b4;
#X obj 733 774 send b5;
#X obj 584 169 t b b b b b b;
#X obj 681 46 receive startstop;
#X obj 683 71 route start stop;
#X obj 602 137 t b f;
#X msg 742 108 stop;
#X connect 1 0 4 0;
#X connect 2 0 1 0;
#X connect 3 0 2 0;
#X connect 4 0 0 0;
#X connect 4 1 3 0;
#X connect 4 2 3 1;
#X connect 5 0 8 0;
#X connect 6 0 5 0;
#X connect 7 0 6 0;
#X connect 8 0 25 0;
#X connect 8 1 7 0;
#X connect 8 2 7 1;
#X connect 9 0 12 0;
#X connect 10 0 9 0;
#X connect 11 0 10 0;
#X connect 12 0 26 0;
#X connect 12 1 11 0;
#X connect 12 2 11 1;
#X connect 13 0 16 0;
#X connect 14 0 13 0;
#X connect 15 0 14 0;
#X connect 16 0 27 0;
#X connect 16 1 15 0;
#X connect 16 2 15 1;
#X connect 17 0 20 0;
#X connect 18 0 17 0;
#X connect 19 0 18 0;
#X connect 20 0 28 0;
#X connect 20 1 19 0;
#X connect 20 2 19 1;
#X connect 21 0 24 0;
#X connect 22 0 21 0;
#X connect 23 0 22 0;
#X connect 24 0 29 0;
#X connect 24 1 23 0;
#X connect 24 2 23 1;
#X connect 30 0 2 0;
#X connect 30 1 6 0;
#X connect 30 2 10 0;
#X connect 30 3 14 0;
#X connect 30 4 18 0;
#X connect 30 5 22 0;
#X connect 31 0 32 0;
#X connect 32 0 33 0;
#X connect 32 1 34 0;
#X connect 33 0 30 0;
#X connect 34 0 3 0;
#X connect 34 0 7 0;
#X connect 34 0 11 0;
#X connect 34 0 15 0;
#X connect 34 0 19 0;
#X connect 34 0 23 0;
#X restore 67 676 pd del-matrix;
#X floatatom 1500 108 5 0 0 0 - - - 0;
#X msg 1500 132 set \$1;
#X msg 1500 157 120;
#X text 977 629 clipping failsafe;
#X text 45 505 subpatch containing sends for parameter automation;
#X text 40 617 subpatch containing sends for note automation triggers;
#X text 1452 435 dsp on/off;
#X floatatom 1281 336 5 0 0 0 - - - 0;
#X msg 1310 109 start 1;
#X msg 1382 109 stop 0;
#X obj 1314 182 send startstop;
#X text 1305 72 start/stop sequence;
#X obj 1334 255 r startstop;
#X text 1500 72 set piece length in seconds;
#X obj 404 859 writesf~ 2;
#X msg 495 785 open recording.wav;
#X msg 496 819 start;
#X msg 554 820 stop;
#X text 522 744 recording to file;
#X obj 389 49 loadbang;
#X obj 1310 134 t anything b;
#X msg 1500 38 120;
#X obj 1070 223 r v5;
#X floatatom 204 178 14 0 0 0 - - - 0;
#X floatatom 371 179 18 0 0 0 - - - 0;
#X floatatom 543 180 18 0 0 0 - - - 0;
#X floatatom 694 179 17 0 0 0 - - - 0;
#X floatatom 852 175 16 0 0 0 - - - 0;
#X floatatom 982 174 5 0 0 0 - - - 0;
#X obj 371 154 expr ($f1*4/3), f 17;
#X obj 694 154 expr $f1*2*5/4;
#X obj 852 150 expr $f1*2*9/5;
#X obj 981 147 expr $f1*2*2*9/8;
#X obj 922 629 * 0.03;
#X obj 1346 659 bng 20 250 50 0 empty empty empty 0 -10 0 12 #fcfcfc #000000 #000000;
#X obj 1346 709 del 500;
#X obj 1346 684 t b b;
#X obj 1346 734 t b b;
#X obj 1346 759 del 125000;
#X obj 1346 784 t b b;
#X obj 1346 809 del 500;
#X obj 1346 834 t b;
#X connect 0 0 1 0;
#X connect 0 0 2 0;
#X connect 0 0 87 0;
#X connect 0 0 88 0;
#X connect 0 0 89 0;
#X connect 0 0 90 0;
#X connect 1 0 81 0;
#X connect 2 0 83 0;
#X connect 3 0 4 0;
#X connect 5 0 15 0;
#X connect 6 0 16 0;
#X connect 7 0 17 0;
#X connect 8 0 18 0;
#X connect 9 0 19 0;
#X connect 10 0 20 0;
#X connect 11 0 65 0;
#X connect 12 0 13 0;
#X connect 12 0 13 1;
#X connect 12 0 72 0;
#X connect 12 0 72 1;
#X connect 14 0 91 0;
#X connect 15 0 12 0;
#X connect 16 0 12 0;
#X connect 17 0 12 0;
#X connect 18 0 12 0;
#X connect 19 0 12 0;
#X connect 20 0 12 0;
#X connect 21 0 22 0;
#X connect 22 0 15 1;
#X connect 23 0 22 1;
#X connect 24 0 21 0;
#X connect 25 0 26 0;
#X connect 26 0 16 1;
#X connect 27 0 26 1;
#X connect 28 0 25 0;
#X connect 29 0 30 0;
#X connect 30 0 17 1;
#X connect 31 0 30 1;
#X connect 32 0 29 0;
#X connect 33 0 34 0;
#X connect 34 0 18 1;
#X connect 35 0 34 1;
#X connect 36 0 33 0;
#X connect 37 0 38 0;
#X connect 38 0 19 1;
#X connect 39 0 38 1;
#X connect 40 0 37 0;
#X connect 41 0 42 0;
#X connect 42 0 20 1;
#X connect 43 0 42 1;
#X connect 44 0 41 0;
#X connect 45 0 44 0;
#X connect 46 0 40 0;
#X connect 47 0 39 0;
#X connect 48 0 35 0;
#X connect 49 0 36 0;
#X connect 50 0 32 0;
#X connect 51 0 31 0;
#X connect 52 0 27 0;
#X connect 53 0 28 0;
#X connect 54 0 24 0;
#X connect 55 0 23 0;
#X connect 58 0 59 0;
#X connect 59 0 60 0;
#X connect 60 0 11 1;
#X connect 65 0 14 0;
#X connect 66 0 78 0;
#X connect 67 0 68 0;
#X connect 70 0 11 0;
#X connect 73 0 72 0;
#X connect 74 0 72 0;
#X connect 75 0 72 0;
#X connect 77 0 0 0;
#X connect 77 0 79 0;
#X connect 78 0 68 0;
#X connect 78 1 60 0;
#X connect 79 0 58 0;
#X connect 80 0 43 0;
#X connect 81 0 5 0;
#X connect 82 0 6 0;
#X connect 83 0 7 0;
#X connect 84 0 8 0;
#X connect 85 0 9 0;
#X connect 86 0 10 0;
#X connect 87 0 82 0;
#X connect 88 0 84 0;
#X connect 89 0 85 0;
#X connect 90 0 86 0;
#X connect 91 0 12 1;
#X connect 92 0 94 0;
#X connect 93 0 95 0;
#X connect 94 0 93 0;
#X connect 94 1 74 0;
#X connect 95 0 96 0;
#X connect 95 1 66 0;
#X connect 96 0 97 0;
#X connect 97 0 98 0;
#X connect 97 1 67 0;
#X connect 98 0 99 0;
#X connect 99 0 75 0;
