#N canvas 160 160 1920 966 12;
#X obj 61 38 inlet;
#X obj 61 62 symbol \$1^;
#X obj 61 86 list fromsymbol;
#X obj 159 119 list length;
#X obj 159 143 - 1;
#X obj 61 176 list split 2;
#X obj 61 200 list tosymbol;
#X obj 61 279 outlet;
#X obj 165 245 print;
#X connect 0 0 1 0;
#X connect 1 0 2 0;
#X connect 2 0 3 0;
#X connect 2 0 5 0;
#X connect 3 0 4 0;
#X connect 4 0 5 1;
#X connect 5 0 6 0;
#X connect 6 0 7 0;
#X connect 6 0 8 0;
