#N canvas 4 0 1920 966 12;
#X obj 151 22 bng 19 250 50 0 empty empty empty 0 -10 0 12 #fcfcfc #000000 #000000;
#X floatatom 188 23 12 0 0 0 - - - 0;
#X msg 188 46 set \$1;
#X msg 188 70 3.23;
#X obj 188 94 t f f;
#X obj 53 146 expr floor($f1);
#X floatatom 53 170 5 0 0 0 - - - 0;
#X obj 226 147 expr $f1 - floor($f1);
#X floatatom 226 171 5 0 0 0 - - - 0;
#X obj 226 214 f;
#X floatatom 226 262 13 0 0 0 - - - 0;
#X floatatom 226 366 7 0 0 0 - - - 0;
#X obj 226 238 * 10;
#X obj 294 423 t b;
#X floatatom 440 278 8 0 0 0 - - - 0;
#X msg 440 301 set \$1;
#X msg 440 325 23;
#X floatatom 440 349 5 0 0 0 - - - 0;
#X obj 226 413 t b;
#X obj 226 311 expr $f1 - floor($f1);
#X obj 226 335 t f f;
#X obj 377 398 print;
#X obj 226 285 t f f f;
#X obj 396 220 print;
#X obj 226 389 moses 0.1;
#X text 289 23 input number to "split": 3.4 -> 3 \, 4;
#X text 38 25 start program button;
#X text 33 199 integer part;
#X text 10 106 floor of signal;
#X text 392 146 decimal part;
#X text 251 195 stores in f \, by definition < 1;
#X text 133 211 multiplies by 10 \, sets f and passes 10*f;
#X text 494 305 sets a message to the last set f value;
#X text 48 342 checks if the decimal part of 10*f is greater or less than 0.1;
#X text 322 437 greater than .1: sends bang back up to f and restarts loop;
#X text 133 443 less than .1: sends bang to message with last f value to return f;
#X connect 0 0 3 0;
#X connect 1 0 2 0;
#X connect 2 0 3 0;
#X connect 3 0 4 0;
#X connect 4 0 5 0;
#X connect 4 1 7 0;
#X connect 5 0 6 0;
#X connect 7 0 8 0;
#X connect 8 0 9 0;
#X connect 9 0 12 0;
#X connect 10 0 22 0;
#X connect 11 0 24 0;
#X connect 12 0 9 1;
#X connect 12 0 10 0;
#X connect 13 0 9 0;
#X connect 14 0 15 0;
#X connect 15 0 16 0;
#X connect 16 0 17 0;
#X connect 18 0 16 0;
#X connect 19 0 20 0;
#X connect 20 0 11 0;
#X connect 20 1 21 0;
#X connect 22 0 19 0;
#X connect 22 1 14 0;
#X connect 22 2 23 0;
#X connect 24 0 18 0;
#X connect 24 1 13 0;
